<?xml version="1.0" encoding="UTF-8"?><svg id="_лой_1" xmlns="http://www.w3.org/2000/svg" viewBox="0 0 148.75 86.97"><defs><style>.cls-1{fill:#0090d7;}.cls-2{fill:#1d1d1b;}</style></defs><g><path class="cls-2" d="M25.17,39.26h8.55l-.44,2.24h-5.87l-.81,4.21h5.34l-.44,2.24h-5.34l-.95,4.9h6.26l-.42,2.24h-8.96l3.07-15.83Z"/><path class="cls-2" d="M39.19,55.09l1.39-7.35c.03-.14,.05-.28,.07-.43,.01-.15,.02-.28,.02-.4,0-.31-.08-.57-.23-.8-.15-.22-.46-.33-.92-.33-.22,0-.44,.05-.67,.14-.23,.09-.46,.21-.68,.35-.22,.14-.43,.29-.61,.44s-.35,.29-.49,.39l-1.53,8h-2.56l2.13-11.09h2.06l.18,1.43,1.18-.85c.35-.26,.71-.47,1.06-.64,.35-.16,.7-.24,1.04-.24,.52,0,.96,.07,1.31,.21,.35,.14,.62,.32,.82,.55s.34,.5,.42,.8,.12,.61,.12,.94c0,.45-.05,.89-.14,1.32l-1.41,7.58h-2.54Z"/><path class="cls-2" d="M50.94,43.65c1.11,0,1.98,.27,2.62,.82s.96,1.26,.96,2.14c0,.75-.2,1.39-.61,1.92-.41,.52-.94,.95-1.61,1.28-.66,.33-1.41,.58-2.23,.74s-1.66,.26-2.51,.29c-.02,.09-.02,.2-.02,.31v.29c0,.26,.03,.51,.08,.74s.15,.44,.3,.61c.15,.18,.35,.32,.6,.43s.58,.16,.98,.16,.8-.04,1.26-.12c.45-.08,1.02-.22,1.7-.44l.42,1.78c-.65,.28-1.31,.48-1.98,.61-.67,.13-1.33,.2-1.98,.2-.82,0-1.49-.1-2.01-.3-.52-.2-.94-.47-1.24-.82-.3-.35-.5-.75-.61-1.21-.11-.46-.16-.96-.16-1.5,0-.51,.03-1.06,.09-1.65,.06-.59,.18-1.19,.35-1.78,.17-.59,.4-1.16,.68-1.7,.29-.54,.65-1.02,1.1-1.43,.45-.42,.98-.75,1.61-.99,.62-.25,1.36-.37,2.21-.37Zm-.39,1.96c-.48,0-.88,.12-1.2,.35s-.6,.52-.82,.85c-.22,.34-.4,.71-.52,1.1-.12,.39-.22,.75-.28,1.07,.29,0,.68-.02,1.17-.05,.49-.03,.96-.12,1.43-.25,.47-.14,.88-.35,1.22-.62s.52-.67,.52-1.18c0-.38-.13-.69-.39-.92-.26-.23-.64-.35-1.13-.35Z"/><path class="cls-2" d="M59.6,43.95l.12,1.66c.65-.57,1.32-1.03,2.01-1.37,.69-.35,1.39-.56,2.08-.64l-.12,2.7c-.92,.08-1.71,.16-2.35,.24-.64,.08-1.24,.2-1.81,.36l-1.57,8.18h-2.56l2.15-11.14h2.06Z"/><path class="cls-2" d="M70.18,54.11l-.05-.02c-.54,.41-1.1,.71-1.69,.9-.58,.19-1.03,.29-1.34,.29-.54,0-.99-.09-1.35-.27-.36-.18-.66-.42-.89-.73-.23-.31-.4-.67-.5-1.07-.1-.41-.15-.84-.15-1.31,0-.88,.08-1.81,.25-2.78,.17-.98,.46-1.88,.86-2.7,.4-.82,.92-1.51,1.56-2.06,.64-.55,1.44-.82,2.39-.82,.26,0,.53,.07,.81,.2s.57,.3,.88,.52l1.02,.76,.67-1.16h2.06l-2.36,12.52c-.14,.71-.35,1.3-.64,1.77s-.63,.84-1.04,1.12c-.41,.28-.86,.47-1.36,.58-.5,.11-1.03,.16-1.58,.16-.69,0-1.36-.06-2-.19-.64-.12-1.3-.36-1.98-.72l.67-1.8c.35,.14,.81,.28,1.36,.42s1.16,.21,1.8,.21c.77,0,1.31-.2,1.62-.59,.31-.39,.52-.9,.65-1.53l.32-1.7Zm1.46-7.52c-.22-.22-.49-.43-.82-.64-.33-.21-.67-.31-1.01-.31-.45,0-.84,.17-1.19,.51-.35,.34-.65,.78-.9,1.32s-.45,1.16-.58,1.85-.2,1.4-.2,2.11c0,.53,.1,.97,.29,1.33s.54,.54,1.03,.54c.37,0,.75-.08,1.14-.24,.39-.16,.74-.34,1.05-.54l1.18-5.93Z"/><path class="cls-2" d="M81.82,43.65c1.11,0,1.98,.27,2.62,.82s.96,1.26,.96,2.14c0,.75-.2,1.39-.61,1.92-.41,.52-.94,.95-1.61,1.28-.66,.33-1.41,.58-2.23,.74s-1.66,.26-2.51,.29c-.02,.09-.02,.2-.02,.31v.29c0,.26,.03,.51,.08,.74s.15,.44,.3,.61c.15,.18,.35,.32,.6,.43s.58,.16,.98,.16,.8-.04,1.26-.12c.45-.08,1.02-.22,1.7-.44l.42,1.78c-.65,.28-1.31,.48-1.98,.61-.67,.13-1.33,.2-1.98,.2-.82,0-1.49-.1-2.01-.3-.52-.2-.94-.47-1.24-.82-.3-.35-.5-.75-.61-1.21-.11-.46-.16-.96-.16-1.5,0-.51,.03-1.06,.09-1.65,.06-.59,.18-1.19,.35-1.78,.17-.59,.4-1.16,.68-1.7,.29-.54,.65-1.02,1.1-1.43,.45-.42,.98-.75,1.61-.99,.62-.25,1.36-.37,2.21-.37Zm-.39,1.96c-.48,0-.88,.12-1.2,.35s-.6,.52-.82,.85c-.22,.34-.4,.71-.52,1.1-.12,.39-.22,.75-.28,1.07,.29,0,.68-.02,1.17-.05,.49-.03,.96-.12,1.43-.25,.47-.14,.88-.35,1.22-.62s.52-.67,.52-1.18c0-.38-.13-.69-.39-.92-.26-.23-.64-.35-1.13-.35Z"/><path class="cls-2" d="M90.27,55.41c-.52,0-.96-.06-1.31-.17-.35-.12-.62-.27-.82-.47-.2-.2-.34-.44-.43-.72-.08-.28-.13-.58-.13-.9,0-.23,.02-.47,.05-.72,.03-.25,.07-.5,.12-.76l1.16-5.85h-1.78l.25-1.34,1.94-.49,1.36-2.98h1.71l-.55,2.98h2.77l-.35,1.83h-2.77l-1.04,5.27c-.05,.25-.09,.48-.13,.7-.04,.22-.06,.42-.06,.59,0,.26,.06,.47,.17,.62,.12,.15,.34,.23,.68,.23,.52,0,.94-.02,1.26-.07,.32-.05,.58-.08,.8-.12,.02,.28,.05,.58,.1,.9,.05,.32,.09,.63,.1,.92-.29,.12-.6,.22-.91,.29-.32,.07-.62,.12-.91,.15-.29,.03-.55,.05-.79,.07-.23,.02-.4,.02-.51,.02Z"/></g><path class="cls-1" d="M130.32,27.8c-.29,0-.51,0-.77,0l-.73,.03c-.49,.02-.97,.05-1.45,.09-.96,.07-1.92,.17-2.88,.29-.96,.12-1.91,.27-2.86,.45-.95,.18-1.89,.4-2.83,.64-.94,.24-1.87,.53-2.79,.85-.92,.32-1.83,.68-2.72,1.09-.89,.41-1.77,.86-2.6,1.39l-.32,.19-.32,.21-.32,.22c-.11,.07-.21,.14-.3,.21l-.56,.42-.06,.04-.04,.03-.07,.06-.14,.12-.28,.24-.28,.24-.27,.25c-.18,.17-.36,.33-.54,.5-.34,.35-.69,.7-1.01,1.07-.65,.72-1.25,1.5-1.8,2.29-.56,.79-1.05,1.61-1.52,2.45-.47,.83-.89,1.69-1.28,2.56-.4,.87-.74,1.75-1.06,2.64-.32,.89-.61,1.79-.86,2.7-.25,.91-.46,1.83-.65,2.75-.17,.87-.31,1.75-.41,2.64,0,.05-.01,.1-.02,.15-.01,.13-.04,.43-.05,.6h.2l.11-.73c.16-.86,.36-1.71,.58-2.56,.24-.9,.5-1.79,.8-2.67,.29-.88,.61-1.75,.97-2.61,.35-.86,.73-1.71,1.14-2.54,.42-.83,.86-1.65,1.34-2.44,.49-.79,.99-1.57,1.56-2.3,.56-.74,1.15-1.45,1.8-2.12,.31-.34,.66-.65,.99-.97,.17-.15,.35-.3,.52-.45l.26-.23,.27-.21,.55-.42,.57-.4c.19-.14,.39-.25,.58-.37,.19-.12,.39-.24,.59-.35,.8-.46,1.64-.86,2.49-1.21,.85-.36,1.73-.67,2.62-.93,.89-.27,1.78-.51,2.69-.7,1.81-.4,3.65-.68,5.5-.85,.92-.09,1.85-.15,2.78-.19,.85-.03,1.7-.04,2.55-.03-.05,.71-.14,1.42-.24,2.13-.12,.78-.26,1.56-.43,2.34-.33,1.55-.78,3.07-1.32,4.56-1.08,2.97-2.65,5.8-4.84,8.07-.54,.57-1.15,1.09-1.75,1.59-.63,.48-1.27,.94-1.95,1.35-.68,.41-1.37,.79-2.09,1.11-.72,.33-1.45,.63-2.2,.89-1.5,.51-3.04,.89-4.61,1.14-.78,.12-1.57,.22-2.36,.27-.7,.05-1.41,.07-2.11,.06,.24-.8,.52-1.59,.83-2.37,.34-.86,.72-1.7,1.14-2.53,.42-.82,.88-1.62,1.4-2.39,.26-.38,.53-.75,.82-1.11,.29-.36,.59-.7,.92-1.03,.16-.16,.32-.34,.49-.49l.5-.47c.34-.31,.69-.61,1.05-.91,.36-.29,.72-.58,1.09-.85,.37-.28,.75-.54,1.13-.81,.39-.26,.77-.52,1.16-.76,.39-.25,.79-.49,1.18-.73,.8-.47,1.61-.92,2.44-1.33l-.1-.21c-.87,.36-1.71,.75-2.55,1.18-.42,.21-.84,.43-1.25,.66-.41,.22-.82,.46-1.23,.7-.4,.25-.81,.49-1.2,.75-.4,.25-.79,.53-1.18,.8-.39,.28-.77,.56-1.15,.87l-.57,.47c-.19,.16-.35,.31-.53,.47l-.26,.23-.03,.03h-.02v.02l-.03,.02-.07,.07-.13,.13c-.18,.17-.35,.35-.52,.53-.33,.36-.65,.74-.95,1.13-.6,.78-1.14,1.59-1.64,2.43-.5,.84-.95,1.7-1.36,2.57-.21,.44-.41,.88-.6,1.33-.09,.22-.19,.45-.28,.68-.09,.23-.17,.45-.27,.72h0l-.54,1.88,1.96,.08,.36,.02h.33c.22,0,.43,0,.64,0,.42,0,.85-.02,1.27-.05,.84-.05,1.68-.13,2.51-.25,1.67-.24,3.32-.62,4.94-1.15,.81-.26,1.61-.58,2.39-.92,.79-.34,1.55-.75,2.31-1.17,.75-.43,1.48-.92,2.19-1.43l.54-.43,.26-.21,.23-.2,.23-.19,.11-.1,.06-.05,.06-.06,.03-.03,.48-.46c.63-.62,1.22-1.27,1.76-1.96,.55-.69,1.04-1.41,1.5-2.14,.93-1.47,1.65-3.04,2.27-4.63,.3-.8,.58-1.6,.8-2.42,.23-.82,.43-1.64,.6-2.46,.16-.83,.28-1.66,.39-2.5,.05-.42,.08-.84,.11-1.27l.03-.64c0-.22,0-.42,0-.68h0l.05-1.99h-1.9Z"/></svg>