<svg id="Слой_1" data-name="Слой 1" xmlns="http://www.w3.org/2000/svg" viewBox="0 0 1024 278.35"><defs><style>.cls-1{fill:#1d1d1b;}.cls-2{fill:#0090d7;}</style></defs><path class="cls-1" d="M37,239q-12.54,0-21.59-3.15A44.73,44.73,0,0,1,0,226.93l9.55-14.84a49.78,49.78,0,0,0,26.86,7.56,21.38,21.38,0,0,0,11.25-3.2,33.22,33.22,0,0,0,9.54-9.1,56.66,56.66,0,0,0,7.27-14.19,83.16,83.16,0,0,0,4.18-18.49h-45l3.79-19.3H71.63c.26-2.11.5-4.09.7-5.94a51.28,51.28,0,0,0,.3-5.54q0-12.27-5.18-20.09T51.53,116a66.31,66.31,0,0,0-13.22,1.4,53,53,0,0,0-12.64,4.18l-4.18-15.92a92.7,92.7,0,0,1,15.12-5.87,71.79,71.79,0,0,1,20.3-2.49q10.94,0,18.46,3.78A31.67,31.67,0,0,1,87.43,111.4,44.81,44.81,0,0,1,94,126.82a83.26,83.26,0,0,1,2.07,19,173.2,173.2,0,0,1-3.65,36.32,101.42,101.42,0,0,1-10.95,29.65,57.65,57.65,0,0,1-18.44,19.89Q51.94,239,37,239Z"/><path class="cls-1" d="M164.5,195h-33l-8,41.19H101.82l18.71-95.71H142l-7.36,37.61h33l7.37-37.61h21.69l-18.51,95.71H156.54Z"/><path class="cls-1" d="M256.4,137.66q14.31,0,22.58,7.07a23.07,23.07,0,0,1,8.25,18.4q0,9.75-5.27,16.52a39.62,39.62,0,0,1-13.82,11,74.76,74.76,0,0,1-19.21,6.37,137.8,137.8,0,0,1-21.59,2.49,16.73,16.73,0,0,0-.2,2.68v2.49a27.64,27.64,0,0,0,.7,6.37,12.59,12.59,0,0,0,2.59,5.27A13,13,0,0,0,235.6,220a21.8,21.8,0,0,0,8.46,1.4,64.52,64.52,0,0,0,10.84-1,110.43,110.43,0,0,0,14.62-3.78L273.11,232a84.06,84.06,0,0,1-17,5.28,89.08,89.08,0,0,1-17,1.69q-10.54,0-17.32-2.59a26,26,0,0,1-10.63-7.06,24.06,24.06,0,0,1-5.28-10.45,56.77,56.77,0,0,1-1.39-12.93,138.41,138.41,0,0,1,.79-14.23,90.18,90.18,0,0,1,3-15.33,77,77,0,0,1,5.87-14.62,46.59,46.59,0,0,1,9.46-12.34,43.53,43.53,0,0,1,13.83-8.55A51.65,51.65,0,0,1,256.4,137.66ZM253,154.58a17.34,17.34,0,0,0-10.35,3,27.81,27.81,0,0,0-7.06,7.36,37.49,37.49,0,0,0-4.48,9.46,80.71,80.71,0,0,0-2.38,9.25c2.51,0,5.87-.13,10-.4A56,56,0,0,0,251.12,181a30.4,30.4,0,0,0,10.55-5.37q4.47-3.58,4.47-10.15a10.08,10.08,0,0,0-3.38-8Q259.37,154.57,253,154.58Z"/><path class="cls-1" d="M328.74,140.65l2.19,9.95,8.76-5.38a82.27,82.27,0,0,1,10.15-5.17,22.94,22.94,0,0,1,8.75-1.79c4.51,0,8.18.79,11,2.39a18.71,18.71,0,0,1,6.87,6.56,27.81,27.81,0,0,1,3.58,9.75,67.2,67.2,0,0,1,1,11.74,139.24,139.24,0,0,1-2,22.29,86.75,86.75,0,0,1-7,22.79,50.68,50.68,0,0,1-13.63,17.81q-8.65,7.16-22,7.16a27.26,27.26,0,0,1-9.45-2.09,32.62,32.62,0,0,1-10.84-7.26l-.21.19-8.35,43-11.54,2.78q-5.78,1.39-11.35,3,6.38-34.64,12.94-68.85T311,140.65Zm0,23.28q-2.6,12.94-5.07,25.67t-4.88,25.47a66.61,66.61,0,0,0,7.56,4.58,19,19,0,0,0,8.95,2.19q6,0,10.36-5.58a48.44,48.44,0,0,0,7.25-13.53A84.73,84.73,0,0,0,357.09,186a104.39,104.39,0,0,0,1.3-15.12q0-7.56-2.59-11.24c-1.72-2.45-4.58-3.68-8.55-3.68a21.53,21.53,0,0,0-9.56,2.59A61.15,61.15,0,0,0,328.74,163.93Z"/><path class="cls-1" d="M412.5,212.48c0,3.45,1.23,5.91,3.68,7.36S422,222,426.23,222a113.14,113.14,0,0,0,11.84-.79,65.85,65.85,0,0,0,14.22-3.18l4,14.12a54.75,54.75,0,0,1-8.36,3.09c-3.05.86-6.11,1.55-9.16,2.09s-6,.92-8.95,1.19-5.51.4-7.76.4q-13.77,0-22.71-5.56t-8.93-18.46q0-9.54,3.59-15.88a32.75,32.75,0,0,1,9.25-10.53,51.4,51.4,0,0,1,12.63-6.75q7-2.58,13.93-4.76,3.18-1.19,6.07-2.18a19.32,19.32,0,0,0,5-2.49,11.36,11.36,0,0,0,3.28-3.57,10.07,10.07,0,0,0,1.19-5.06,8.08,8.08,0,0,0-3.09-6.65q-3.08-2.49-10.24-2.48a101,101,0,0,0-10.55.79,67.26,67.26,0,0,0-13.13,2.79l-3.78-14.45a59.69,59.69,0,0,1,7.46-2.52c2.72-.74,5.5-1.38,8.36-1.92s5.64-.93,8.35-1.2,5.28-.41,7.66-.41q14.13,0,22.3,5.47t8.15,18a26.25,26.25,0,0,1-3,13,29.07,29.07,0,0,1-7.83,8.95,45.15,45.15,0,0,1-11,6.07q-6.15,2.38-12.49,4.38-4.56,1.59-8.22,3.08a26.57,26.57,0,0,0-6.35,3.58,13.65,13.65,0,0,0-4.06,5.08A16.81,16.81,0,0,0,412.5,212.48Z"/><path class="cls-1" d="M528,137.66q14.31,0,22.58,7.07a23,23,0,0,1,8.26,18.4,26,26,0,0,1-5.28,16.52,39.62,39.62,0,0,1-13.82,11,74.76,74.76,0,0,1-19.21,6.37,137.8,137.8,0,0,1-21.59,2.49,16.73,16.73,0,0,0-.2,2.68v2.49a28.2,28.2,0,0,0,.7,6.37,12.59,12.59,0,0,0,2.59,5.27,13,13,0,0,0,5.17,3.68,21.84,21.84,0,0,0,8.46,1.4,64.52,64.52,0,0,0,10.84-1,110.91,110.91,0,0,0,14.63-3.78L544.7,232a84.17,84.17,0,0,1-17,5.28,89.18,89.18,0,0,1-17,1.69q-10.55,0-17.31-2.59a26,26,0,0,1-10.64-7.06,24.06,24.06,0,0,1-5.28-10.45,56.77,56.77,0,0,1-1.39-12.93,138.41,138.41,0,0,1,.79-14.23,89.25,89.25,0,0,1,3-15.33,75.72,75.72,0,0,1,5.87-14.62,46.55,46.55,0,0,1,9.45-12.34A43.53,43.53,0,0,1,509,140.85,51.69,51.69,0,0,1,528,137.66Zm-3.39,16.92a17.31,17.31,0,0,0-10.34,3,27.69,27.69,0,0,0-7.07,7.36,37.81,37.81,0,0,0-4.47,9.46,78.87,78.87,0,0,0-2.39,9.25c2.51,0,5.87-.13,10-.4A56.16,56.16,0,0,0,522.72,181a30.36,30.36,0,0,0,10.54-5.37q4.49-3.58,4.48-10.15a10.09,10.09,0,0,0-3.39-8C532.09,155.57,528.85,154.58,524.6,154.58Z"/><path class="cls-1" d="M664.89,236.16l12.54-64.87a27.35,27.35,0,0,0,.6-3.18,24.7,24.7,0,0,0,.2-3c0-3.06-.7-5.41-2.1-7.07s-3.67-2.49-6.86-2.49a17.9,17.9,0,0,0-5.07.8,28.64,28.64,0,0,0-5.18,2.09c-1.66.86-3.25,1.76-4.77,2.68s-2.82,1.79-3.88,2.59l-13.93,72.43H614.35l12.54-64.87a42.46,42.46,0,0,0,1-7.76,8.48,8.48,0,0,0-1.88-5.87q-1.9-2.08-6.88-2.09a21.24,21.24,0,0,0-9.74,2.69,80.6,80.6,0,0,0-9.16,5.47l-13.93,72.43H564.4l18.11-95.51h17.71l2.19,10.54L613,144.43c.93-.53,2.12-1.2,3.58-2a35.85,35.85,0,0,1,4.58-2.09c1.59-.6,3.14-1.13,4.67-1.59a14.08,14.08,0,0,1,4.08-.7,28.88,28.88,0,0,1,9,1.19,17.26,17.26,0,0,1,5.87,3.19,14,14,0,0,1,3.48,4.47,36.36,36.36,0,0,1,2,5.08l12.53-7.56a65.87,65.87,0,0,1,8.86-4.38,23.08,23.08,0,0,1,8.44-2,27.93,27.93,0,0,1,10.15,1.59,14.34,14.34,0,0,1,6.22,4.38,16.83,16.83,0,0,1,3,6.47,33,33,0,0,1,.89,7.86,53,53,0,0,1-.49,7.06q-.5,3.69-1.08,7.27l-11.83,63.47Z"/><path class="cls-2" d="M1007.66,0c-2.47,0-4.43,0-6.6.09l-6.31.22c-4.19.18-8.35.44-12.5.74Q969.8,2,957.45,3.58T932.82,7.46C924.65,9,916.52,10.89,908.44,13s-16.09,4.52-24,7.29A245.16,245.16,0,0,0,861,29.68a198,198,0,0,0-22.43,12l-2.72,1.67-2.75,1.85L830.37,47c-.94.62-1.82,1.23-2.58,1.83L823,52.48l-.51.38-.31.26-.61.51-1.23,1-2.45,2.05-2.45,2-2.33,2.16c-1.55,1.45-3.12,2.87-4.63,4.35-2.94,3-6,6-8.68,9.19a202.32,202.32,0,0,0-15.5,19.7,248,248,0,0,0-13.12,21.08c-4,7.19-7.64,14.58-11,22S753.79,152.35,751,160s-5.21,15.43-7.37,23.26S739.67,199,738,207c-1.45,7.53-2.68,15.09-3.53,22.72,0,.42-.1.85-.14,1.28-.11,1.11-.32,3.72-.43,5.21h1.74l1-6.27c1.34-7.38,3.09-14.73,5-22q3.07-11.61,6.86-23t8.33-22.51c3.05-7.39,6.29-14.71,9.86-21.87s7.37-14.19,11.54-21a237.73,237.73,0,0,1,13.42-19.83A194.83,194.83,0,0,1,807.1,81.44c2.69-2.94,5.65-5.61,8.52-8.37,1.48-1.33,3-2.61,4.5-3.92l2.26-2,2.36-1.82,4.69-3.62,5-3.43c1.63-1.18,3.35-2.13,5-3.2s3.36-2.08,5.12-3A184.91,184.91,0,0,1,866,41.68a232,232,0,0,1,22.53-8Q900,30.13,911.7,27.58a388.1,388.1,0,0,1,47.36-7.33Q971,19.13,983,18.63c7.31-.28,14.67-.38,22-.22-.45,6.1-1.17,12.25-2.07,18.34q-1.53,10.13-3.71,20.13a308.65,308.65,0,0,1-11.35,39.3c-9.34,25.56-22.79,49.92-41.71,69.49A163.85,163.85,0,0,1,931,179.33,180.52,180.52,0,0,1,914.25,191a178.49,178.49,0,0,1-18,9.59,203.24,203.24,0,0,1-19,7.62A234,234,0,0,1,837.59,218c-6.74,1.07-13.52,1.87-20.33,2.36-6.06.45-12.18.65-18.21.53,2.06-6.88,4.46-13.73,7.11-20.44,2.94-7.39,6.18-14.67,9.8-21.76a193.68,193.68,0,0,1,12-20.56c2.24-3.27,4.56-6.48,7-9.57A110.12,110.12,0,0,1,843,139.7c1.41-1.42,2.77-2.9,4.21-4.26l4.35-4.05c2.92-2.68,6-5.26,9-7.8s6.2-5,9.43-7.35,6.46-4.67,9.7-7,6.61-4.47,10-6.58,6.77-4.22,10.19-6.27c6.87-4,13.87-7.93,21-11.44L920,83.11c-7.48,3.08-14.76,6.5-22,10.13-3.6,1.83-7.2,3.68-10.74,5.65s-7.06,4-10.58,6-7,4.19-10.36,6.45-6.79,4.54-10.15,6.89-6.61,4.82-9.88,7.46l-4.89,4c-1.62,1.34-3,2.68-4.55,4l-2.24,2-.28.25-.14.13-.07.06-.2.2-.57.57-1.14,1.12c-1.55,1.48-3,3.05-4.44,4.6-2.88,3.14-5.58,6.4-8.19,9.73a209.08,209.08,0,0,0-14.11,20.9c-4.28,7.21-8.17,14.61-11.76,22.16q-2.68,5.67-5.13,11.47c-.82,1.93-1.61,3.88-2.39,5.86s-1.5,3.86-2.29,6.18h0l-4.68,16.17,16.84.72,3.06.14,2.82,0q2.77,0,5.52,0c3.66-.06,7.3-.18,10.92-.41q10.88-.63,21.64-2.19a250.12,250.12,0,0,0,42.55-9.87c7-2.27,13.84-5,20.62-7.94s13.36-6.44,19.88-10.08a197.92,197.92,0,0,0,18.84-12.34l4.65-3.66,2.28-1.83,1.95-1.68,2-1.68,1-.83.49-.43.54-.49.25-.25,4.14-3.94a170.91,170.91,0,0,0,15.19-16.92,196.78,196.78,0,0,0,12.94-18.45,229.37,229.37,0,0,0,19.53-39.85c2.63-6.86,5-13.81,6.92-20.84s3.7-14.1,5.2-21.21,2.44-14.32,3.32-21.54c.46-3.61.68-7.25.92-10.91l.28-5.53c.07-1.92.06-3.59.06-5.88h0L1024,.12Z"/></svg>