<svg xmlns="http://www.w3.org/2000/svg" data-name="Слой 1" width="110" height="110"><rect id="backgroundrect" width="100%" height="100%" x="0" y="0" fill="none" stroke="none" style="" class=""/><defs><style>.cls-1{fill:#1d1d1b;}.cls-2{fill:#0090d7;}</style></defs><g class="currentLayer" style=""><title>Layer 1</title><path class="cls-2" d="M100.14324068832582,7.230616077434439 c-0.8653807503023869,0 -1.552079645279179,0 -2.312353421860627,0.03658232941728923 l-2.2107500139303875,0.08942347190892914 c-1.4679940663024291,0.07316465883457829 -2.9254774352327635,0.17884694381785796 -4.379457238372401,0.30078804187548885 Q86.8787406047435,8.043556731151973 82.55183685323159,8.685779847588826 T73.92255431074264,10.262884715800844 C71.0601410597424,10.888849019163342 68.21174207190498,11.657077936926413 65.38086091302111,12.51473032659841 s-5.637237357232955,1.8372458774016271 -8.408557897675006,2.9631686828004127 A85.89341892475022,99.6502653326953 0 0 0 48.759944801950134,19.294655378602645 a69.3706026558188,80.48112471803584 0 0 0 -7.858498068535435,4.877643922305204 l-0.9529698950698346,0.6788054458541422 l-0.9634805924419285,0.7519701046887208 L38.028522785042426,26.33472143979649 c-0.32933518432560577,0.25201160265243616 -0.6376489739070232,0.49995850203628395 -0.9039199740000641,0.7438406981515446 L35.44639479729805,28.562178830982525 l-0.17868185532559425,0.15445872420633217 l-0.10861053951163582,0.10568228498327964 l-0.21371751323257365,0.2072998666979718 l-0.4309385922558454,0.40647032685876816 l-0.8583736187209907,0.8332641700604728 l-0.8583736187209907,0.8129406537175343 l-0.8163308292326165,0.8779759060149377 c-0.5430526975581785,0.5893819739452129 -1.093112526697751,1.1665698380846616 -1.6221509610931375,1.7681459218356368 c-1.030048342465189,1.2194109805763014 -2.1021394744187516,2.4388219611526023 -3.041095106325796,3.73546230383207 a70.88414307740031,82.23707653006574 0 0 0 -5.4305269755817775,8.00746543911771 a86.88843160930843,100.8046410609742 0 0 0 -4.596678317395673,8.568394490182811 c-1.4014263162791691,2.9225216501145357 -2.676724264093213,5.9263373656008245 -3.8539223697677123,8.942347190892873 S11.198215959877732,69.15637037436757 10.220721104273036,72.26586837483715 s-1.8253577769536165,6.271837143430776 -2.582127987744367,9.454499802734922 S6.251181063412268,88.11821112232906 5.666085576365743,91.3699737371992 c-0.5080170396511986,3.060721561246516 -0.9389556319070438,6.133637232298794 -1.2367587241163662,9.235005826231186 c0,0.17071753728068256 -0.03503565790697937,0.34549977782995356 -0.049049921069771005,0.5202820183792232 c-0.038539223697677316,0.4511820628132323 -0.11211410530233377,1.5120696159146139 -0.15065332900001088,2.117710402934176 h0.6096204475814399 l0.3503565790697939,-2.5485689494044697 c0.4694778159535222,-2.9997510122177 1.0826018293256574,-5.987307914629638 1.7517828953489603,-8.942347190892873 q1.0755946977442614,-4.719120494830287 2.4034461324187735,-9.348817517751641 t2.9184703036513686,-9.149647057590846 c1.0685875661628657,-3.003815715486288 2.203742882348992,-5.9791785080924615 3.4545158696281497,-8.889506048401236 s2.582127987744367,-5.767813938125904 4.043114922465401,-8.535876864034105 a83.29026954226164,96.63019080413467 0 0 1 4.70178529111661,-8.060306581609348 A68.25997230016759,79.19261378189357 0 0 1 29.875725190088367,40.33355949681243 c0.94245919769774,-1.1950227609647748 1.9795146717443255,-2.280298533677684 2.9850380536746277,-3.402156635807879 c0.5185277370232922,-0.5406055347221606 1.0510697372093762,-1.0608875531013822 1.576604605814064,-1.5933636812863674 l0.7918058686977316,-0.8129406537175343 l0.8268415266047104,-0.7397759948829565 l1.6431723558373252,-1.4714225832287378 l1.7517828953489603,-1.3941932211255712 c0.5710812238837621,-0.47963498569334595 1.1736945398838032,-0.865781796209175 1.7517828953489603,-1.3007050459480556 s1.1771981056745013,-0.8454582798662347 1.7938256848373353,-1.2194109805763014 A64.78443503579525,75.1604281394546 0 0 1 50.51172769729911,24.17229930090785 a81.28272634419177,94.30111583123393 0 0 1 7.893533726442415,-3.2517626148701377 Q62.42385138567205,19.477567025689087 66.52302336078864,18.441067692199233 a135.9733883369863,157.75113385388747 0 0 1 16.59288758474535,-2.9794274958747624 Q87.29916849962729,15.006393430242653 91.5034474484648,14.80315826681327 c2.5611065930001797,-0.11381169152045496 5.139731014953849,-0.15445872420633217 7.707844739535426,-0.08942347190892914 c-0.1576604605814071,2.4794689938384784 -0.40991719751165706,4.979261504019895 -0.7252381186744704,7.454665794589786 q-0.5360455659767821,4.11754441107931 -1.2998229083489292,8.182247679666979 a108.13755812989132,125.45706638495842 0 0 1 -3.9765471724421393,15.97428384554954 c-3.272330448511857,10.389381554510082 -7.98462643700056,20.290998716789648 -14.613372913001024,28.24562301341572 A57.40592548058543,66.60016305580898 0 0 1 73.28490533683559,80.12293979301712 A63.24636965367886,73.37602340454463 0 0 1 67.41643263741656,84.86644850745893 a62.535145798167186,72.55088864102133 0 0 1 -6.306418423256256,3.8980504345755778 a71.20647113014454,82.61102923077581 0 0 1 -6.656775002326049,3.0973038906638046 A81.98343950233131,95.11405648495148 0 0 1 40.558097285926316,95.84114733264566 c-2.361403342930399,0.434923249738882 -4.736820949023588,0.760099511225896 -7.122749252488871,0.9592699713866901 c-2.1231608691629402,0.18291164708644564 -4.267343133070066,0.264205712458199 -6.379993304860913,0.2154292732351469 c0.7217345528837728,-2.7965158487883177 1.5625903426512726,-5.580837587770871 2.491035277186222,-8.308253480993201 c1.030048342465189,-3.003815715486288 2.165203658651315,-5.962919695018111 3.433494474883962,-8.844794312446771 a67.85706223423732,78.725172906006 0 0 1 4.204278948837503,-8.357029920216249 c0.7847987371163345,-1.3291579688281683 1.5976260005582525,-2.6339277180448106 2.4524960534885443,-3.8899210280384002 A38.58126648716551,44.76051239368742 0 0 1 42.45352637869389,64.01452073960418 c0.4940027764884077,-0.5771878641394496 0.9704877240233242,-1.1787639478904244 1.475001197883825,-1.7315635924183477 l1.524051118953596,-1.6462048237780071 c1.023041210883793,-1.0893404759814955 2.1021394744187516,-2.138033919277114 3.1532092116281274,-3.1704685494983833 s2.17221079023271,-2.032351634293834 3.3038625406281388,-2.9875569024119373 s2.2633035007908573,-1.8982164264304426 3.3984588169769827,-2.8452922880113696 s2.315856987651326,-1.8169223610586887 3.5035657906979205,-2.6745747507306876 s2.3719140403024914,-1.7153047793439966 3.5701335407211796,-2.5485689494044697 c2.406949698209471,-1.6258813074350695 4.859445751698015,-3.2233096919900217 7.357488160465633,-4.650020539264296 L69.43098296706788,41.01236494266656 c-2.6206672114420453,1.2519286067250024 -5.171263107070131,2.642057124581986 -7.707844739535426,4.11754441107931 c-1.2612836846512518,0.7438406981515446 -2.5225673693025037,1.4958108028402641 -3.762829659209566,2.2965573467520337 s-2.473517448232732,1.6258813074350695 -3.7067726065584017,2.4388219611526023 s-2.4524960534885443,1.7031106695382356 -3.6296941591630447,2.6217336082390474 s-2.3789211718838885,1.8453752839388033 -3.5561192775583903,2.8005805520569056 s-2.315856987651326,1.9591869754592572 -3.461523001209546,3.0322686383664017 l-1.7132436716512855,1.6258813074350695 c-0.5675776580930638,0.5446702379907482 -1.0510697372093762,1.0893404759814955 -1.5941224347675542,1.6258813074350695 l-0.7847987371163345,0.8129406537175343 l-0.09809984213954222,0.101617581714692 l-0.049049921069771005,0.05284114249163986 l-0.02452496053488551,0.02438821961152612 l-0.07007131581395855,0.08129406537175368 l-0.19970325006978193,0.2316880863094979 l-0.3994065001395643,0.4552467660818198 c-0.5430526975581785,0.6015760837509755 -1.0510697372093762,1.2397344969192396 -1.5555832110698766,1.8697635035503286 c-1.0090269477210012,1.276316826336529 -1.954989711209441,2.6014100918961085 -2.8694203825815974,3.954956280335803 a73.25255355191213,84.98481593963099 0 0 0 -4.943531330674766,8.49522983134823 c-1.4995261584187105,2.93065105665171 -2.862413251000201,5.938531475406587 -4.120193369860756,9.007382443190275 q-0.9389556319070438,2.3046867532892095 -1.7973292506280347,4.662214649070058 c-0.2872923948372303,0.784487730837421 -0.5640740923023666,1.5771048682120161 -0.8373522239768035,2.381916115392375 s-0.5255348686046893,1.568975461674841 -0.8023165660698245,2.51198661998718 h0 l-1.6396687900466271,6.572625185306264 l5.9000047915352996,0.2926586353383133 l1.0720911319535638,0.05690584576022743 l0.9880055529768139,0 q0.9704877240233242,0 1.9339683164652524,0 c1.2823050793954391,-0.02438821961152612 2.557603027209481,-0.07316465883457829 3.82589384344213,-0.16665283401209496 q3.8118795802793386,-0.2560763059210238 7.5817163710703,-0.8901700158207013 a87.63118755693638,101.6663581539148 0 0 0 14.90767243941965,-4.011862126096029 c2.4524960534885443,-0.922687641969402 4.8489350543259215,-2.032351634293834 7.224352660419113,-3.22737439525861 s4.680763896372422,-2.61766890497046 6.965088791907465,-4.097220894736373 a69.34257412949323,80.44860709188718 0 0 0 6.600717949674883,-5.0158438334371835 l1.6291580926745353,-1.4876813963030875 l0.7988130002791265,-0.7438406981515446 l0.6831953291860958,-0.6828701491227296 l0.7007131581395852,-0.6828701491227296 l0.3503565790697939,-0.3373703712927788 l0.17167472374419837,-0.17478224054927052 l0.18919255269768814,-0.19917046016079626 l0.08758914476744842,-0.101617581714692 l1.4504762373489393,-1.6014930878235423 a59.87944292881815,69.46984356343185 0 0 0 5.32191643607014,-6.877477930450338 a68.94316762935368,79.98523091926819 0 0 0 4.533614133163107,-7.49937753054425 a80.3612885412382,93.23209887159538 0 0 0 6.842463989233041,-16.197842525321864 c0.9214378029535526,-2.788386442251143 1.7517828953489603,-5.613355213919572 2.4244675271629603,-8.470841611736702 s1.2963193425582311,-5.731231608708614 1.8218542111629188,-8.621235632674448 s0.8548700529302939,-5.820655080617544 1.1631838425117096,-8.755370840537841 c0.1611640263721048,-1.4673578799601499 0.2382424737674594,-2.9469098697260603 0.32232805274420995,-4.434591266029148 l0.09809984213954222,-2.2477809075289827 c0.02452496053488551,-0.7804230275688336 0.02102139474418763,-1.4592284734229737 0.02102139474418763,-2.3900455219295496 h0 L105.86806719032626,7.2793925166574915 z" id="svg_9"/></g></svg>